<?xml version="1.0" encoding="utf-8"?>
<svg version="1.1" id="Layer_1" xmlns="http://www.w3.org/2000/svg" x="0px" y="0px" viewBox="1585 850 335 375"
     xml:space="default">
    <g fill-opacity="0.5" fill="#8BC34A">
        <path fill-opacity="0.85" d="M1734.276,1000.782c-0.479,2.602-0.955,5.135-1.431,7.601c-0.476,2.466-0.951,4.865-1.427,7.2
			c-0.477,2.334-0.955,4.604-1.438,6.811c-0.482,2.207-0.968,4.352-1.461,6.437c-0.492,2.085-0.991,4.109-1.498,6.076
			c-0.507,1.967-1.022,3.875-1.548,5.728c-0.526,1.853-1.063,3.65-1.612,5.394c-0.55,1.744-1.112,3.434-1.69,5.074
			c-0.578,1.639-1.171,3.227-1.781,4.767c-0.61,1.539-1.238,3.029-1.885,4.473c-0.647,1.443-1.314,2.84-2.004,4.193
			c-0.689,1.353-1.4,2.661-2.135,3.926c-0.735,1.266-1.494,2.49-2.28,3.673s-1.598,2.328-2.438,3.434
			c-0.841,1.106-1.71,2.175-2.611,3.208s-1.832,2.031-2.796,2.995c-0.964,0.964-1.962,1.896-2.995,2.796
			c-1.033,0.9-2.102,1.77-3.208,2.611c-1.106,0.841-2.25,1.653-3.434,2.439c-1.184,0.786-2.407,1.545-3.673,2.28
			s-2.574,1.446-3.926,2.135s-2.749,1.356-4.193,2.004c-1.444,0.647-2.934,1.275-4.473,1.885s-3.127,1.203-4.767,1.781
			c-1.639,0.578-3.33,1.14-5.074,1.69c-1.744,0.55-3.541,1.086-5.394,1.612s-3.762,1.041-5.728,1.548
			c-1.967,0.507-3.991,1.005-6.076,1.498c-2.085,0.492-4.23,0.979-6.437,1.461c-2.207,0.482-4.477,0.961-6.812,1.437
			c-2.334,0.477-4.734,0.952-7.2,1.427c-2.466,0.476-4.999,0.952-7.601,1.431c2.602,0.479,5.135,0.955,7.601,1.431
			c2.466,0.476,4.865,0.951,7.2,1.427c2.334,0.477,4.604,0.955,6.812,1.437c2.207,0.482,4.352,0.969,6.437,1.461
			s4.109,0.991,6.076,1.498c1.967,0.507,3.875,1.022,5.728,1.548s3.65,1.063,5.394,1.612s3.434,1.112,5.074,1.69
			c1.639,0.578,3.227,1.171,4.767,1.781c1.539,0.61,3.029,1.238,4.473,1.885c1.443,0.647,2.84,1.315,4.193,2.004
			s2.661,1.4,3.926,2.135s2.49,1.494,3.673,2.28c1.184,0.786,2.328,1.598,3.434,2.439c1.106,0.841,2.175,1.71,3.208,2.611
			c1.033,0.9,2.031,1.832,2.995,2.796c0.964,0.965,1.896,1.962,2.796,2.995s1.77,2.102,2.611,3.208
			c0.841,1.106,1.653,2.25,2.438,3.434c0.786,1.184,1.545,2.407,2.28,3.673c0.735,1.266,1.446,2.574,2.135,3.926
			c0.689,1.353,1.356,2.749,2.004,4.193c0.647,1.443,1.275,2.934,1.885,4.473c0.61,1.539,1.203,3.127,1.781,4.766
			c0.578,1.639,1.14,3.33,1.69,5.074c0.55,1.744,1.086,3.541,1.612,5.394c0.526,1.853,1.041,3.762,1.548,5.728
			c0.507,1.967,1.005,3.991,1.498,6.076c0.492,2.085,0.979,4.23,1.461,6.437c0.482,2.207,0.961,4.477,1.438,6.812
			c0.477,2.334,0.952,4.734,1.427,7.2c0.476,2.466,0.952,4.999,1.431,7.601c0.479-2.602,0.955-5.135,1.431-7.601
			c0.476-2.466,0.951-4.865,1.427-7.2c0.477-2.334,0.955-4.604,1.437-6.812c0.482-2.207,0.969-4.352,1.461-6.437
			c0.492-2.085,0.991-4.109,1.498-6.076c0.507-1.967,1.022-3.875,1.548-5.728c0.526-1.853,1.063-3.65,1.612-5.394
			c0.55-1.744,1.112-3.434,1.69-5.074c0.578-1.639,1.171-3.227,1.781-4.766c0.61-1.539,1.238-3.03,1.885-4.473
			c0.647-1.444,1.315-2.84,2.004-4.193s1.4-2.661,2.135-3.926s1.494-2.49,2.28-3.673c0.786-1.184,1.598-2.328,2.439-3.434
			c0.841-1.106,1.71-2.175,2.611-3.208s1.832-2.031,2.796-2.995c0.964-0.964,1.962-1.896,2.995-2.796s2.101-1.77,3.208-2.611
			s2.25-1.653,3.434-2.439s2.407-1.545,3.673-2.28s2.574-1.446,3.926-2.135c1.352-0.689,2.749-1.356,4.193-2.004
			c1.444-0.647,2.934-1.275,4.473-1.885c1.539-0.61,3.127-1.203,4.767-1.781c1.639-0.578,3.33-1.14,5.074-1.69
			s3.541-1.086,5.394-1.612s3.762-1.042,5.728-1.548c1.967-0.507,3.991-1.005,6.076-1.498s4.229-0.979,6.437-1.461
			c2.207-0.482,4.477-0.961,6.811-1.437c2.334-0.477,4.734-0.952,7.2-1.427s4.999-0.952,7.601-1.431
			c-2.602-0.479-5.135-0.955-7.601-1.431s-4.865-0.951-7.2-1.427c-2.334-0.477-4.604-0.955-6.811-1.437
			c-2.207-0.482-4.352-0.969-6.437-1.461c-2.085-0.492-4.109-0.991-6.076-1.498c-1.967-0.507-3.875-1.022-5.728-1.548
			s-3.65-1.063-5.394-1.612c-1.744-0.55-3.434-1.112-5.074-1.69c-1.639-0.578-3.227-1.171-4.767-1.781s-3.029-1.238-4.473-1.885
			c-1.443-0.647-2.84-1.315-4.193-2.004c-1.353-0.689-2.661-1.4-3.926-2.135s-2.49-1.494-3.673-2.28
			c-1.184-0.786-2.328-1.598-3.434-2.439c-1.106-0.841-2.175-1.71-3.208-2.611c-1.033-0.9-2.031-1.832-2.995-2.796
			c-0.964-0.965-1.896-1.962-2.796-2.995s-1.77-2.102-2.611-3.208c-0.841-1.106-1.653-2.25-2.439-3.434
			c-0.786-1.184-1.545-2.407-2.28-3.673s-1.446-2.574-2.135-3.926s-1.356-2.749-2.004-4.193c-0.647-1.444-1.275-2.934-1.885-4.473
			c-0.61-1.539-1.203-3.127-1.781-4.767c-0.578-1.639-1.14-3.33-1.69-5.074c-0.55-1.744-1.086-3.541-1.612-5.394
			c-0.526-1.853-1.041-3.762-1.548-5.728c-0.507-1.967-1.005-3.991-1.498-6.076c-0.492-2.085-0.979-4.23-1.461-6.437
			c-0.482-2.207-0.961-4.477-1.437-6.811c-0.477-2.334-0.952-4.734-1.427-7.2
			C1735.231,1005.917,1734.755,1003.384,1734.276,1000.782z"/>
        <path fill-opacity="0.9" d="M1803.007,850.823c-0.479,2.602-0.955,5.135-1.431,7.601c-0.476,2.466-0.951,4.865-1.427,7.2
			c-0.477,2.334-0.955,4.604-1.437,6.811c-0.482,2.207-0.969,4.352-1.461,6.437c-0.492,2.085-0.991,4.109-1.498,6.076
			c-0.507,1.967-1.022,3.875-1.548,5.728c-0.526,1.853-1.063,3.65-1.612,5.394c-0.55,1.744-1.112,3.434-1.69,5.074
			c-0.578,1.639-1.171,3.227-1.781,4.767s-1.238,3.029-1.885,4.473c-0.647,1.444-1.314,2.84-2.004,4.193
			c-0.689,1.352-1.4,2.661-2.135,3.926c-0.735,1.266-1.494,2.49-2.28,3.673c-0.786,1.184-1.598,2.328-2.439,3.434
			c-0.841,1.106-1.71,2.175-2.611,3.208c-0.901,1.033-1.832,2.031-2.796,2.995c-0.964,0.965-1.962,1.896-2.995,2.796
			s-2.102,1.77-3.208,2.611c-1.106,0.841-2.25,1.653-3.434,2.439c-1.184,0.786-2.407,1.545-3.673,2.28
			c-1.266,0.735-2.574,1.446-3.927,2.135c-1.352,0.689-2.749,1.356-4.193,2.004c-1.444,0.647-2.934,1.275-4.473,1.885
			c-1.539,0.61-3.127,1.203-4.767,1.781c-1.639,0.578-3.33,1.14-5.074,1.69c-1.744,0.55-3.541,1.086-5.394,1.612
			c-1.853,0.526-3.762,1.042-5.728,1.548c-1.967,0.507-3.991,1.006-6.076,1.498c-2.085,0.492-4.229,0.979-6.437,1.461
			s-4.477,0.961-6.812,1.437c-2.334,0.477-4.734,0.952-7.2,1.427c-2.466,0.476-4.999,0.952-7.601,1.431
			c2.602,0.479,5.135,0.955,7.601,1.431c2.466,0.476,4.865,0.951,7.2,1.427c2.334,0.477,4.604,0.955,6.812,1.437
			c2.207,0.482,4.352,0.968,6.437,1.461c2.085,0.492,4.109,0.991,6.076,1.498c1.967,0.507,3.875,1.022,5.728,1.548
			c1.853,0.526,3.65,1.063,5.394,1.612c1.744,0.55,3.434,1.112,5.074,1.69c1.639,0.578,3.227,1.171,4.767,1.781
			c1.539,0.61,3.029,1.238,4.473,1.885s2.841,1.314,4.193,2.003c1.352,0.689,2.661,1.4,3.927,2.135
			c1.266,0.735,2.49,1.494,3.673,2.28c1.184,0.786,2.328,1.598,3.434,2.439c1.106,0.841,2.175,1.71,3.208,2.611
			s2.031,1.832,2.995,2.796c0.964,0.965,1.896,1.962,2.796,2.995c0.9,1.033,1.77,2.102,2.611,3.208
			c0.841,1.106,1.653,2.25,2.439,3.434c0.786,1.184,1.545,2.408,2.28,3.673c0.735,1.266,1.446,2.574,2.135,3.926
			c0.689,1.352,1.356,2.749,2.004,4.193c0.647,1.443,1.275,2.934,1.885,4.473c0.61,1.539,1.203,3.127,1.781,4.767
			c0.578,1.639,1.14,3.33,1.69,5.073c0.55,1.744,1.086,3.541,1.612,5.394c0.526,1.853,1.041,3.762,1.548,5.728
			c0.507,1.967,1.005,3.991,1.498,6.076c0.492,2.085,0.979,4.23,1.461,6.437s0.961,4.477,1.437,6.811
			c0.477,2.334,0.952,4.734,1.427,7.2c0.476,2.466,0.952,4.999,1.431,7.601c0.479-2.602,0.955-5.135,1.431-7.601
			c0.476-2.466,0.951-4.865,1.427-7.2c0.477-2.334,0.955-4.604,1.437-6.811c0.482-2.207,0.969-4.352,1.461-6.437
			s0.991-4.109,1.498-6.076c0.507-1.967,1.022-3.875,1.548-5.728c0.526-1.853,1.063-3.65,1.612-5.394
			c0.55-1.744,1.112-3.434,1.69-5.073c0.578-1.639,1.171-3.227,1.781-4.767c0.61-1.539,1.238-3.029,1.885-4.473
			c0.647-1.444,1.314-2.841,2.003-4.193c0.689-1.353,1.4-2.661,2.135-3.926c0.735-1.266,1.494-2.49,2.28-3.673
			c0.786-1.184,1.598-2.328,2.439-3.434c0.841-1.106,1.71-2.175,2.611-3.208c0.9-1.033,1.832-2.031,2.796-2.995
			c0.964-0.964,1.962-1.896,2.995-2.796c1.033-0.9,2.102-1.77,3.208-2.611c1.106-0.841,2.25-1.653,3.434-2.439
			c1.184-0.786,2.407-1.545,3.673-2.28c1.266-0.735,2.574-1.446,3.926-2.135c1.353-0.689,2.749-1.356,4.193-2.003
			c1.444-0.647,2.934-1.275,4.473-1.885s3.127-1.203,4.766-1.781c1.639-0.578,3.33-1.14,5.074-1.69s3.541-1.086,5.394-1.612
			s3.762-1.041,5.728-1.548c1.967-0.507,3.991-1.006,6.076-1.498c2.085-0.492,4.23-0.979,6.437-1.461
			c2.207-0.482,4.477-0.961,6.811-1.437c2.334-0.477,4.734-0.952,7.2-1.427c2.466-0.476,4.999-0.952,7.601-1.431
			c-2.602-0.479-5.135-0.955-7.601-1.431c-2.466-0.476-4.865-0.951-7.2-1.427c-2.334-0.477-4.604-0.955-6.811-1.437
			s-4.352-0.969-6.437-1.461c-2.085-0.492-4.109-0.991-6.076-1.498c-1.967-0.507-3.875-1.022-5.728-1.548
			c-1.853-0.526-3.65-1.063-5.394-1.612c-1.744-0.55-3.434-1.112-5.074-1.69c-1.639-0.578-3.227-1.171-4.766-1.781
			c-1.539-0.61-3.029-1.238-4.473-1.885c-1.443-0.648-2.84-1.315-4.193-2.004c-1.352-0.689-2.661-1.4-3.926-2.135
			c-1.266-0.735-2.49-1.494-3.673-2.28c-1.184-0.786-2.328-1.598-3.434-2.439c-1.106-0.841-2.175-1.71-3.208-2.611
			c-1.033-0.9-2.031-1.832-2.995-2.796c-0.964-0.964-1.896-1.962-2.796-2.995c-0.9-1.033-1.77-2.102-2.611-3.208
			c-0.841-1.106-1.653-2.25-2.439-3.434c-0.786-1.184-1.545-2.407-2.28-3.673c-0.735-1.266-1.446-2.574-2.135-3.926
			c-0.689-1.352-1.356-2.749-2.003-4.193c-0.647-1.444-1.275-2.934-1.885-4.473c-0.61-1.539-1.203-3.127-1.781-4.767
			c-0.578-1.639-1.14-3.33-1.69-5.074c-0.55-1.744-1.086-3.541-1.612-5.394c-0.526-1.853-1.041-3.762-1.548-5.728
			c-0.507-1.967-1.005-3.991-1.498-6.076c-0.492-2.085-0.979-4.23-1.461-6.437c-0.482-2.207-0.961-4.477-1.437-6.811
			c-0.477-2.335-0.952-4.734-1.427-7.2C1803.963,855.958,1803.486,853.425,1803.007,850.823z"/>
        <path d="M1643.051,970.791c-0.228,1.24-0.455,2.448-0.682,3.623c-0.227,1.175-0.453,2.319-0.68,3.431
			c-0.227,1.113-0.455,2.194-0.685,3.247c-0.23,1.052-0.462,2.074-0.696,3.068c-0.235,0.994-0.472,1.958-0.714,2.896
			s-0.487,1.847-0.738,2.73c-0.251,0.883-0.506,1.74-0.768,2.571c-0.262,0.831-0.53,1.637-0.806,2.418
			c-0.275,0.781-0.558,1.538-0.849,2.272c-0.291,0.734-0.59,1.444-0.899,2.132s-0.626,1.354-0.955,1.998
			c-0.328,0.645-0.667,1.268-1.018,1.871c-0.35,0.603-0.712,1.187-1.087,1.751c-0.375,0.564-0.761,1.109-1.162,1.637
			c-0.401,0.527-0.815,1.036-1.244,1.529c-0.429,0.492-0.873,0.968-1.333,1.427c-0.46,0.46-0.935,0.904-1.427,1.333
			c-0.492,0.429-1.002,0.844-1.529,1.244c-0.527,0.401-1.072,0.788-1.637,1.162c-0.564,0.374-1.147,0.736-1.751,1.087
			c-0.603,0.35-1.227,0.689-1.871,1.018c-0.645,0.328-1.31,0.646-1.998,0.955c-0.688,0.309-1.398,0.608-2.132,0.899
			c-0.734,0.291-1.49,0.573-2.272,0.849c-0.781,0.275-1.587,0.544-2.418,0.806c-0.831,0.262-1.688,0.518-2.571,0.768
			c-0.883,0.251-1.793,0.496-2.73,0.738c-0.937,0.242-1.902,0.479-2.896,0.714c-0.994,0.235-2.016,0.466-3.068,0.696
			c-1.052,0.23-2.134,0.458-3.246,0.685c-1.113,0.227-2.256,0.454-3.431,0.68c-1.175,0.227-2.383,0.454-3.623,0.682
			c1.24,0.228,2.448,0.455,3.623,0.682c1.175,0.227,2.319,0.453,3.431,0.68s2.194,0.455,3.246,0.685
			c1.052,0.23,2.074,0.462,3.068,0.696c0.994,0.235,1.958,0.472,2.896,0.714c0.937,0.242,1.847,0.487,2.73,0.738
			c0.883,0.251,1.74,0.507,2.571,0.769c0.831,0.262,1.637,0.53,2.418,0.805c0.781,0.275,1.538,0.558,2.272,0.849
			c0.734,0.291,1.444,0.59,2.132,0.899c0.688,0.309,1.354,0.626,1.998,0.955c0.645,0.328,1.268,0.667,1.871,1.018
			c0.603,0.35,1.187,0.712,1.751,1.087c0.564,0.375,1.109,0.762,1.637,1.162c0.527,0.401,1.036,0.815,1.529,1.244
			c0.492,0.429,0.968,0.873,1.427,1.333c0.46,0.46,0.904,0.935,1.333,1.428c0.429,0.492,0.844,1.002,1.244,1.529
			c0.401,0.527,0.788,1.072,1.162,1.637c0.374,0.564,0.736,1.147,1.087,1.751s0.689,1.227,1.018,1.871
			c0.328,0.645,0.646,1.31,0.955,1.998s0.608,1.398,0.899,2.132c0.291,0.734,0.574,1.49,0.849,2.272
			c0.275,0.781,0.543,1.587,0.806,2.418c0.262,0.831,0.518,1.688,0.768,2.571c0.251,0.883,0.496,1.793,0.738,2.73
			c0.242,0.937,0.479,1.902,0.714,2.896c0.235,0.994,0.466,2.016,0.696,3.068s0.458,2.134,0.685,3.247
			c0.227,1.113,0.454,2.256,0.68,3.431c0.227,1.175,0.454,2.383,0.682,3.623c0.228-1.24,0.455-2.448,0.682-3.623
			c0.227-1.175,0.453-2.319,0.68-3.431c0.227-1.113,0.455-2.195,0.685-3.247c0.23-1.052,0.462-2.074,0.696-3.068
			c0.235-0.994,0.472-1.958,0.714-2.896c0.242-0.937,0.487-1.847,0.738-2.73c0.251-0.883,0.506-1.74,0.768-2.571
			c0.262-0.831,0.53-1.637,0.805-2.418c0.275-0.781,0.558-1.538,0.849-2.272c0.291-0.734,0.59-1.444,0.899-2.132
			s0.626-1.354,0.955-1.998c0.328-0.645,0.667-1.268,1.018-1.871s0.712-1.187,1.087-1.751c0.374-0.564,0.761-1.109,1.162-1.637
			c0.401-0.527,0.815-1.036,1.244-1.529c0.429-0.492,0.873-0.968,1.333-1.428c0.46-0.46,0.935-0.903,1.428-1.333
			c0.492-0.429,1.002-0.844,1.529-1.244c0.527-0.401,1.072-0.788,1.637-1.162c0.564-0.374,1.147-0.736,1.751-1.087
			c0.603-0.35,1.227-0.689,1.871-1.018c0.645-0.328,1.31-0.646,1.998-0.955s1.398-0.608,2.132-0.899
			c0.734-0.291,1.49-0.573,2.272-0.849c0.781-0.275,1.587-0.543,2.418-0.805s1.688-0.518,2.571-0.769
			c0.883-0.251,1.793-0.496,2.73-0.738s1.902-0.479,2.896-0.714c0.994-0.235,2.016-0.466,3.068-0.696
			c1.052-0.23,2.134-0.458,3.246-0.685c1.113-0.227,2.256-0.454,3.431-0.68c1.175-0.227,2.383-0.454,3.623-0.682
			c-1.24-0.228-2.448-0.455-3.623-0.682c-1.175-0.227-2.319-0.453-3.431-0.68c-1.113-0.227-2.195-0.455-3.246-0.685
			c-1.052-0.23-2.074-0.462-3.068-0.696c-0.994-0.235-1.958-0.472-2.896-0.714c-0.937-0.242-1.847-0.487-2.73-0.738
			c-0.883-0.251-1.74-0.506-2.571-0.768c-0.831-0.262-1.637-0.53-2.418-0.806c-0.781-0.275-1.538-0.558-2.272-0.849
			c-0.734-0.291-1.444-0.59-2.132-0.899s-1.354-0.627-1.998-0.955c-0.645-0.328-1.268-0.667-1.871-1.018
			c-0.603-0.35-1.187-0.712-1.751-1.087c-0.564-0.375-1.109-0.762-1.637-1.162c-0.527-0.401-1.036-0.815-1.529-1.244
			c-0.492-0.429-0.968-0.873-1.428-1.333c-0.46-0.46-0.903-0.935-1.333-1.427c-0.429-0.492-0.844-1.002-1.244-1.529
			c-0.401-0.527-0.788-1.072-1.162-1.637c-0.375-0.564-0.736-1.147-1.087-1.751c-0.35-0.603-0.689-1.227-1.018-1.871
			s-0.646-1.31-0.955-1.998s-0.608-1.398-0.899-2.132c-0.291-0.734-0.573-1.49-0.849-2.272c-0.275-0.781-0.543-1.587-0.805-2.418
			c-0.262-0.831-0.518-1.688-0.768-2.571c-0.251-0.883-0.496-1.793-0.738-2.73c-0.242-0.937-0.479-1.902-0.714-2.896
			s-0.466-2.016-0.696-3.068c-0.23-1.052-0.458-2.134-0.685-3.247c-0.227-1.113-0.454-2.256-0.68-3.431
			C1643.506,973.238,1643.279,972.031,1643.051,970.791z"/>
        <path d="M1873.409,1021.606c-0.165,0.899-0.33,1.773-0.494,2.625c-0.164,0.852-0.328,1.68-0.493,2.486
			c-0.165,0.806-0.33,1.59-0.496,2.352c-0.167,0.762-0.334,1.503-0.505,2.223c-0.17,0.72-0.342,1.419-0.517,2.098
			c-0.175,0.679-0.353,1.338-0.535,1.978c-0.182,0.64-0.367,1.261-0.557,1.863s-0.384,1.186-0.583,1.752
			c-0.199,0.566-0.404,1.115-0.615,1.646c-0.211,0.531-0.427,1.046-0.651,1.545c-0.224,0.499-0.454,0.981-0.692,1.448
			c-0.238,0.467-0.484,0.919-0.737,1.356c-0.254,0.437-0.516,0.86-0.787,1.268s-0.552,0.804-0.842,1.186
			c-0.29,0.382-0.591,0.751-0.901,1.108c-0.311,0.357-0.632,0.701-0.966,1.034s-0.678,0.655-1.034,0.966
			c-0.357,0.311-0.726,0.611-1.108,0.902c-0.382,0.29-0.777,0.571-1.186,0.842s-0.831,0.534-1.269,0.787
			c-0.437,0.254-0.889,0.499-1.356,0.737s-0.949,0.468-1.448,0.692c-0.499,0.224-1.013,0.44-1.545,0.651
			c-0.532,0.211-1.08,0.415-1.646,0.615c-0.566,0.199-1.15,0.394-1.752,0.583s-1.223,0.375-1.863,0.557
			c-0.64,0.182-1.299,0.36-1.978,0.535s-1.378,0.347-2.098,0.517c-0.72,0.17-1.461,0.338-2.223,0.505
			c-0.762,0.167-1.546,0.332-2.352,0.496s-1.635,0.329-2.486,0.493c-0.852,0.164-1.726,0.329-2.625,0.494
			c0.899,0.165,1.773,0.33,2.625,0.494c0.852,0.164,1.68,0.328,2.486,0.493s1.59,0.33,2.352,0.496
			c0.762,0.167,1.503,0.334,2.223,0.505c0.72,0.17,1.419,0.342,2.098,0.517c0.679,0.175,1.338,0.353,1.978,0.535
			c0.64,0.182,1.261,0.367,1.863,0.557s1.186,0.384,1.752,0.584c0.566,0.199,1.115,0.404,1.646,0.615
			c0.531,0.211,1.046,0.427,1.545,0.651s0.981,0.454,1.448,0.692c0.467,0.238,0.919,0.483,1.356,0.737
			c0.437,0.254,0.86,0.516,1.269,0.787c0.409,0.271,0.804,0.552,1.186,0.842c0.382,0.29,0.751,0.591,1.108,0.901
			c0.357,0.311,0.701,0.633,1.034,0.966c0.333,0.333,0.655,0.678,0.966,1.034c0.311,0.357,0.611,0.726,0.901,1.108
			c0.29,0.382,0.571,0.777,0.842,1.186s0.534,0.831,0.787,1.269s0.499,0.889,0.737,1.356c0.238,0.467,0.468,0.95,0.692,1.448
			c0.224,0.499,0.44,1.013,0.651,1.545c0.211,0.532,0.416,1.08,0.615,1.646c0.199,0.566,0.394,1.15,0.583,1.752
			s0.375,1.223,0.557,1.863c0.182,0.64,0.36,1.299,0.535,1.978c0.175,0.679,0.347,1.378,0.517,2.098
			c0.17,0.72,0.338,1.461,0.505,2.223c0.167,0.762,0.332,1.546,0.496,2.352c0.165,0.806,0.328,1.635,0.493,2.486
			c0.164,0.852,0.329,1.726,0.494,2.625c0.165-0.899,0.33-1.773,0.494-2.625c0.164-0.852,0.328-1.68,0.493-2.486
			s0.33-1.59,0.496-2.352c0.167-0.762,0.334-1.503,0.505-2.223c0.17-0.72,0.342-1.419,0.517-2.098
			c0.175-0.679,0.353-1.338,0.535-1.978s0.367-1.261,0.557-1.863s0.384-1.186,0.584-1.752c0.199-0.566,0.404-1.115,0.615-1.646
			c0.211-0.531,0.428-1.046,0.651-1.545c0.224-0.498,0.454-0.981,0.692-1.448c0.238-0.467,0.484-0.919,0.737-1.356
			c0.254-0.437,0.516-0.86,0.787-1.269c0.271-0.409,0.552-0.804,0.842-1.186c0.29-0.382,0.591-0.751,0.902-1.108
			c0.311-0.357,0.633-0.701,0.966-1.034c0.333-0.333,0.678-0.655,1.034-0.966c0.357-0.311,0.726-0.611,1.108-0.901
			c0.382-0.29,0.777-0.571,1.186-0.842c0.409-0.271,0.831-0.533,1.269-0.787c0.437-0.254,0.889-0.499,1.356-0.737
			c0.467-0.238,0.949-0.468,1.448-0.692s1.013-0.44,1.545-0.651s1.08-0.416,1.646-0.615c0.566-0.199,1.15-0.394,1.752-0.584
			c0.602-0.19,1.223-0.375,1.863-0.557c0.64-0.182,1.299-0.36,1.978-0.535c0.679-0.175,1.378-0.347,2.098-0.517
			c0.72-0.17,1.461-0.338,2.223-0.505c0.762-0.167,1.546-0.332,2.352-0.496c0.806-0.165,1.635-0.329,2.486-0.493
			c0.852-0.164,1.726-0.329,2.625-0.494c-0.899-0.165-1.773-0.33-2.625-0.494c-0.851-0.164-1.68-0.328-2.486-0.493
			c-0.806-0.165-1.59-0.33-2.352-0.496c-0.762-0.167-1.503-0.334-2.223-0.505c-0.72-0.17-1.419-0.342-2.098-0.517
			s-1.338-0.353-1.978-0.535c-0.64-0.182-1.261-0.367-1.863-0.557c-0.602-0.19-1.186-0.384-1.752-0.583
			c-0.566-0.2-1.115-0.404-1.646-0.615c-0.531-0.211-1.046-0.428-1.545-0.651c-0.499-0.224-0.981-0.454-1.448-0.692
			c-0.467-0.238-0.919-0.483-1.356-0.737c-0.437-0.254-0.86-0.516-1.269-0.787s-0.804-0.552-1.186-0.842
			c-0.382-0.29-0.751-0.591-1.108-0.902c-0.357-0.311-0.701-0.633-1.034-0.966c-0.333-0.333-0.655-0.677-0.966-1.034
			c-0.311-0.357-0.611-0.726-0.902-1.108c-0.29-0.382-0.571-0.777-0.842-1.186c-0.271-0.409-0.533-0.831-0.787-1.268
			c-0.254-0.437-0.499-0.889-0.737-1.356c-0.238-0.467-0.468-0.949-0.692-1.448c-0.224-0.498-0.44-1.013-0.651-1.545
			c-0.211-0.532-0.416-1.08-0.615-1.646c-0.199-0.566-0.394-1.15-0.584-1.752s-0.375-1.223-0.557-1.863s-0.36-1.299-0.535-1.978
			c-0.175-0.679-0.347-1.378-0.517-2.098c-0.17-0.72-0.338-1.461-0.505-2.223c-0.167-0.762-0.332-1.546-0.496-2.352
			s-0.329-1.635-0.493-2.486C1873.739,1023.379,1873.574,1022.504,1873.409,1021.606z"/>
        <path d="M1827.171,1141.573c-0.165,0.899-0.33,1.773-0.494,2.625c-0.164,0.852-0.328,1.68-0.493,2.486
			c-0.165,0.806-0.33,1.59-0.496,2.352c-0.167,0.762-0.334,1.503-0.505,2.223s-0.342,1.419-0.517,2.098
			c-0.175,0.679-0.353,1.338-0.535,1.978c-0.182,0.64-0.367,1.261-0.557,1.863c-0.19,0.602-0.384,1.186-0.584,1.752
			c-0.199,0.566-0.404,1.115-0.615,1.646c-0.211,0.531-0.427,1.046-0.651,1.545c-0.224,0.499-0.454,0.981-0.692,1.448
			c-0.238,0.467-0.483,0.919-0.737,1.356c-0.254,0.437-0.516,0.86-0.787,1.269c-0.271,0.409-0.552,0.804-0.842,1.186
			c-0.29,0.382-0.591,0.751-0.901,1.108c-0.311,0.357-0.633,0.701-0.966,1.034c-0.333,0.333-0.678,0.655-1.034,0.966
			c-0.357,0.311-0.726,0.611-1.108,0.901c-0.382,0.29-0.777,0.571-1.186,0.842c-0.409,0.271-0.831,0.533-1.269,0.787
			c-0.437,0.254-0.889,0.499-1.356,0.737c-0.467,0.238-0.949,0.468-1.448,0.692c-0.499,0.224-1.013,0.44-1.545,0.651
			c-0.531,0.211-1.08,0.416-1.646,0.615c-0.566,0.199-1.15,0.394-1.752,0.584c-0.602,0.19-1.223,0.375-1.863,0.557
			s-1.299,0.36-1.978,0.535c-0.679,0.175-1.378,0.347-2.098,0.517c-0.72,0.17-1.461,0.338-2.223,0.505
			c-0.762,0.167-1.546,0.332-2.352,0.496c-0.806,0.165-1.635,0.329-2.486,0.493c-0.852,0.164-1.726,0.329-2.625,0.494
			c0.899,0.166,1.773,0.33,2.625,0.494c0.852,0.164,1.68,0.328,2.486,0.493c0.806,0.165,1.59,0.33,2.352,0.496
			c0.762,0.167,1.503,0.334,2.223,0.504c0.72,0.17,1.419,0.342,2.098,0.517c0.679,0.175,1.338,0.353,1.978,0.535
			c0.64,0.182,1.261,0.367,1.863,0.557c0.602,0.19,1.186,0.384,1.752,0.584c0.566,0.2,1.115,0.404,1.646,0.615
			c0.531,0.211,1.046,0.428,1.545,0.651c0.499,0.224,0.981,0.454,1.448,0.692c0.467,0.238,0.919,0.483,1.356,0.737
			c0.437,0.254,0.86,0.516,1.269,0.787s0.804,0.552,1.186,0.842c0.382,0.29,0.751,0.591,1.108,0.902
			c0.357,0.311,0.701,0.633,1.034,0.966c0.333,0.333,0.655,0.677,0.966,1.034c0.311,0.357,0.611,0.726,0.901,1.108
			c0.29,0.382,0.571,0.777,0.842,1.186c0.271,0.409,0.533,0.831,0.787,1.268c0.254,0.437,0.499,0.889,0.737,1.356
			c0.238,0.467,0.468,0.949,0.692,1.448c0.224,0.498,0.44,1.013,0.651,1.545c0.211,0.531,0.416,1.08,0.615,1.646
			c0.2,0.566,0.394,1.15,0.584,1.752s0.375,1.223,0.557,1.863c0.182,0.64,0.36,1.299,0.535,1.978
			c0.175,0.679,0.347,1.378,0.517,2.098c0.17,0.72,0.338,1.461,0.505,2.223c0.167,0.762,0.332,1.546,0.496,2.352
			c0.165,0.806,0.329,1.635,0.493,2.486c0.164,0.852,0.329,1.726,0.494,2.625c0.165-0.899,0.33-1.773,0.494-2.625
			c0.164-0.852,0.328-1.68,0.493-2.486c0.165-0.806,0.33-1.59,0.496-2.352c0.167-0.762,0.335-1.503,0.505-2.223
			c0.17-0.72,0.342-1.419,0.517-2.098c0.175-0.679,0.353-1.338,0.535-1.978c0.182-0.64,0.367-1.261,0.557-1.863
			c0.19-0.602,0.384-1.186,0.584-1.752c0.2-0.566,0.404-1.115,0.615-1.646c0.211-0.532,0.427-1.046,0.651-1.545
			c0.224-0.499,0.454-0.981,0.692-1.448c0.238-0.467,0.483-0.919,0.737-1.356c0.254-0.437,0.516-0.86,0.787-1.268
			s0.552-0.804,0.842-1.186c0.29-0.382,0.591-0.751,0.901-1.108c0.311-0.357,0.633-0.701,0.966-1.034
			c0.333-0.333,0.678-0.655,1.034-0.966c0.357-0.311,0.726-0.611,1.108-0.902c0.382-0.29,0.777-0.571,1.186-0.842
			s0.831-0.534,1.269-0.787c0.437-0.254,0.889-0.499,1.356-0.737s0.949-0.468,1.448-0.692c0.499-0.224,1.013-0.44,1.545-0.651
			c0.531-0.211,1.08-0.415,1.646-0.615c0.566-0.199,1.15-0.394,1.752-0.584c0.602-0.19,1.223-0.375,1.863-0.557
			c0.64-0.182,1.299-0.36,1.978-0.535c0.679-0.175,1.378-0.347,2.098-0.517c0.72-0.17,1.461-0.338,2.223-0.504
			c0.762-0.167,1.546-0.332,2.352-0.496c0.806-0.165,1.635-0.329,2.486-0.493c0.852-0.164,1.726-0.329,2.625-0.494
			c-0.899-0.165-1.773-0.33-2.625-0.494c-0.852-0.164-1.68-0.328-2.486-0.493c-0.806-0.165-1.59-0.33-2.352-0.496
			c-0.762-0.167-1.503-0.334-2.223-0.505c-0.72-0.17-1.419-0.342-2.098-0.517c-0.679-0.175-1.338-0.353-1.978-0.535
			s-1.261-0.367-1.863-0.557s-1.186-0.384-1.752-0.584c-0.566-0.199-1.115-0.404-1.646-0.615c-0.531-0.211-1.046-0.428-1.545-0.651
			c-0.498-0.224-0.981-0.454-1.448-0.692c-0.467-0.238-0.919-0.483-1.356-0.737c-0.437-0.254-0.86-0.516-1.269-0.787
			c-0.409-0.271-0.804-0.552-1.186-0.842c-0.382-0.29-0.751-0.591-1.108-0.901c-0.357-0.311-0.701-0.633-1.034-0.966
			c-0.333-0.333-0.655-0.678-0.966-1.034c-0.311-0.357-0.611-0.726-0.901-1.108c-0.29-0.382-0.571-0.777-0.842-1.186
			s-0.534-0.831-0.787-1.269c-0.254-0.437-0.499-0.889-0.737-1.356c-0.238-0.467-0.468-0.949-0.692-1.448s-0.44-1.013-0.651-1.545
			c-0.211-0.532-0.416-1.08-0.615-1.646c-0.199-0.566-0.394-1.15-0.584-1.752c-0.19-0.602-0.375-1.223-0.557-1.863
			c-0.182-0.64-0.36-1.299-0.535-1.978c-0.175-0.679-0.347-1.378-0.517-2.098c-0.17-0.72-0.338-1.461-0.505-2.223
			c-0.167-0.762-0.332-1.546-0.496-2.352s-0.329-1.635-0.493-2.486C1827.501,1143.347,1827.337,1142.472,1827.171,1141.573z"/>
        <path d="M1708.454,854.152c-0.165,0.899-0.33,1.773-0.494,2.625c-0.164,0.852-0.328,1.68-0.493,2.486
			c-0.165,0.806-0.33,1.59-0.496,2.352c-0.167,0.762-0.334,1.503-0.505,2.223c-0.17,0.72-0.342,1.419-0.517,2.098
			c-0.175,0.679-0.353,1.338-0.535,1.978s-0.367,1.26-0.557,1.863c-0.19,0.602-0.384,1.186-0.583,1.752s-0.404,1.115-0.615,1.646
			c-0.211,0.532-0.428,1.046-0.651,1.545c-0.224,0.499-0.454,0.981-0.692,1.448s-0.483,0.919-0.737,1.356
			c-0.254,0.437-0.516,0.86-0.787,1.268c-0.271,0.409-0.552,0.804-0.842,1.186c-0.29,0.382-0.591,0.751-0.902,1.108
			c-0.311,0.357-0.632,0.701-0.965,1.034c-0.333,0.333-0.678,0.655-1.034,0.966c-0.357,0.311-0.726,0.611-1.108,0.901
			c-0.382,0.29-0.777,0.571-1.186,0.842c-0.409,0.271-0.831,0.534-1.269,0.787c-0.437,0.254-0.889,0.499-1.356,0.737
			c-0.467,0.238-0.95,0.468-1.448,0.692c-0.499,0.224-1.013,0.44-1.545,0.651c-0.532,0.211-1.08,0.416-1.646,0.615
			c-0.566,0.2-1.15,0.394-1.752,0.584c-0.602,0.19-1.223,0.375-1.863,0.557c-0.64,0.182-1.299,0.36-1.978,0.535
			c-0.679,0.175-1.378,0.347-2.098,0.517c-0.72,0.17-1.461,0.338-2.223,0.505c-0.762,0.167-1.546,0.332-2.352,0.496
			c-0.806,0.165-1.635,0.329-2.486,0.493c-0.852,0.164-1.726,0.329-2.625,0.494c0.899,0.165,1.773,0.33,2.625,0.494
			c0.852,0.164,1.68,0.328,2.486,0.493c0.806,0.165,1.59,0.33,2.352,0.496c0.762,0.167,1.503,0.335,2.223,0.505
			s1.419,0.342,2.098,0.517c0.679,0.175,1.338,0.353,1.978,0.535c0.64,0.182,1.261,0.367,1.863,0.557
			c0.602,0.19,1.186,0.384,1.752,0.584c0.566,0.199,1.115,0.404,1.646,0.615c0.531,0.211,1.046,0.427,1.545,0.651
			c0.498,0.224,0.981,0.454,1.448,0.692c0.467,0.238,0.919,0.484,1.356,0.737c0.437,0.254,0.86,0.516,1.269,0.787
			c0.409,0.271,0.804,0.552,1.186,0.842c0.382,0.29,0.751,0.591,1.108,0.901c0.357,0.311,0.701,0.633,1.034,0.966
			c0.333,0.333,0.655,0.678,0.965,1.034c0.311,0.357,0.611,0.726,0.902,1.108c0.29,0.382,0.571,0.777,0.842,1.186
			c0.271,0.409,0.533,0.831,0.787,1.268c0.254,0.437,0.499,0.889,0.737,1.356c0.238,0.467,0.468,0.949,0.692,1.448
			c0.224,0.499,0.44,1.013,0.651,1.545c0.211,0.532,0.416,1.08,0.615,1.646s0.394,1.15,0.583,1.752
			c0.19,0.602,0.375,1.223,0.557,1.863s0.36,1.299,0.535,1.978c0.175,0.679,0.347,1.378,0.517,2.098
			c0.17,0.72,0.338,1.461,0.505,2.223c0.167,0.762,0.332,1.546,0.496,2.352c0.165,0.806,0.329,1.635,0.493,2.486
			c0.164,0.852,0.329,1.726,0.494,2.625c0.165-0.899,0.33-1.773,0.494-2.625c0.164-0.852,0.328-1.68,0.493-2.486
			c0.165-0.806,0.33-1.59,0.496-2.352c0.167-0.762,0.335-1.503,0.505-2.223c0.17-0.72,0.342-1.419,0.517-2.098
			c0.175-0.679,0.353-1.338,0.535-1.978c0.182-0.64,0.367-1.261,0.557-1.863c0.19-0.602,0.384-1.186,0.583-1.752
			c0.2-0.566,0.404-1.115,0.615-1.646c0.211-0.531,0.428-1.046,0.651-1.545c0.224-0.499,0.454-0.981,0.692-1.448
			c0.238-0.467,0.483-0.919,0.737-1.356c0.254-0.437,0.516-0.86,0.787-1.268c0.271-0.409,0.552-0.804,0.842-1.186
			c0.29-0.382,0.591-0.751,0.901-1.108c0.311-0.357,0.633-0.701,0.966-1.034c0.333-0.333,0.677-0.655,1.034-0.966
			c0.357-0.311,0.726-0.611,1.108-0.901c0.382-0.29,0.777-0.571,1.186-0.842c0.409-0.271,0.831-0.534,1.268-0.787
			c0.437-0.254,0.889-0.499,1.356-0.737c0.467-0.238,0.949-0.468,1.448-0.692c0.499-0.224,1.013-0.44,1.545-0.651
			c0.532-0.211,1.08-0.416,1.646-0.615c0.566-0.2,1.15-0.394,1.752-0.584c0.602-0.19,1.223-0.375,1.863-0.557
			c0.64-0.182,1.299-0.36,1.978-0.535c0.679-0.175,1.378-0.347,2.098-0.517c0.72-0.17,1.461-0.338,2.223-0.505
			c0.762-0.167,1.546-0.332,2.352-0.496c0.806-0.165,1.635-0.329,2.486-0.493c0.852-0.164,1.726-0.329,2.625-0.494
			c-0.899-0.165-1.773-0.33-2.625-0.494c-0.852-0.164-1.68-0.328-2.486-0.493c-0.806-0.165-1.59-0.33-2.352-0.496
			c-0.762-0.167-1.503-0.334-2.223-0.505c-0.72-0.17-1.419-0.342-2.098-0.517c-0.679-0.175-1.338-0.353-1.978-0.535
			c-0.64-0.182-1.261-0.367-1.863-0.557c-0.602-0.19-1.186-0.384-1.752-0.584c-0.566-0.2-1.115-0.404-1.646-0.615
			c-0.531-0.211-1.046-0.427-1.545-0.651c-0.499-0.224-0.981-0.454-1.448-0.692c-0.467-0.238-0.919-0.483-1.356-0.737
			c-0.437-0.254-0.86-0.516-1.268-0.787c-0.409-0.271-0.804-0.552-1.186-0.842c-0.382-0.29-0.751-0.591-1.108-0.901
			c-0.357-0.311-0.701-0.633-1.034-0.966c-0.333-0.333-0.655-0.678-0.966-1.034c-0.311-0.357-0.611-0.726-0.901-1.108
			c-0.29-0.382-0.571-0.777-0.842-1.186c-0.271-0.409-0.534-0.831-0.787-1.268c-0.254-0.437-0.499-0.889-0.737-1.356
			s-0.468-0.949-0.692-1.448c-0.224-0.498-0.44-1.013-0.651-1.545c-0.211-0.532-0.415-1.08-0.615-1.646
			c-0.199-0.566-0.394-1.15-0.583-1.752c-0.19-0.602-0.375-1.223-0.557-1.863c-0.182-0.64-0.36-1.299-0.535-1.978
			s-0.347-1.378-0.517-2.098c-0.17-0.72-0.338-1.461-0.505-2.223c-0.167-0.762-0.332-1.546-0.496-2.352
			c-0.165-0.806-0.329-1.635-0.493-2.486C1708.784,855.925,1708.619,855.05,1708.454,854.152z"/>
    </g>
</svg>
